<svg data-v-423bf9ae="" xmlns="http://www.w3.org/2000/svg" viewBox="0 0 704.4285878853998 60" class="font"><!----><!----><!----><g data-v-423bf9ae="" id="5a2a21a1-4efe-494c-9ddd-91192a3a018a" fill="white" transform="matrix(4.761904617736313,0,0,4.761904617736313,-5.19046437650195,-18.952380946253804)"><path d="M1.09 3.98L1.09 10.60C1.09 12.91 2.52 13.97 4.56 13.97C6.61 13.97 8.04 12.91 8.04 10.60L8.04 3.98L7.28 3.98L7.28 10.60C7.28 12.43 6.27 13.30 4.56 13.30C2.86 13.30 1.85 12.43 1.85 10.60L1.85 3.98ZM10.28 6.83L10.28 13.78L10.98 13.78L10.98 10.22C10.98 8.29 12.08 7.34 13.52 7.34C14.83 7.34 15.68 7.98 15.68 9.52L15.68 13.78L16.38 13.78L16.38 9.46C16.38 7.57 15.09 6.69 13.66 6.69C12.24 6.69 11.52 7.41 11.14 8.12L10.95 8.12L10.95 6.83ZM18.47 8.55C18.47 9.81 19.50 10.28 20.90 10.49L21.66 10.60C22.81 10.77 23.63 11.03 23.63 11.84C23.63 12.71 22.76 13.33 21.42 13.33C20.02 13.33 19.05 12.61 18.58 11.34L17.93 11.61C18.40 12.78 19.50 13.97 21.42 13.97C23.21 13.97 24.33 13.06 24.33 11.83C24.33 10.68 23.38 10.19 21.77 9.95L21.01 9.84C19.99 9.69 19.17 9.42 19.17 8.53C19.17 7.70 19.92 7.25 20.97 7.25C22.06 7.25 23.07 7.78 23.76 8.86L24.33 8.51C23.37 7.18 22.30 6.64 20.96 6.64C19.57 6.64 18.47 7.36 18.47 8.55ZM25.09 6.83L25.09 7.45L27.41 7.45L27.41 12.85C27.41 13.44 27.75 13.78 28.31 13.78L30.16 13.78L30.16 13.16L28.50 13.16C28.25 13.16 28.11 13.02 28.11 12.74L28.11 7.45L30.55 7.45L30.55 6.83L28.11 6.83L28.11 4.40L27.41 4.40L27.41 6.83ZM31.81 10.30C31.81 12.43 33.15 13.97 35.22 13.97C37.30 13.97 38.64 12.43 38.64 10.30C38.64 8.18 37.30 6.64 35.22 6.64C33.15 6.64 31.81 8.18 31.81 10.30ZM32.51 10.30C32.51 8.60 33.56 7.28 35.22 7.28C36.88 7.28 37.94 8.53 37.94 10.30C37.94 12.05 36.88 13.33 35.22 13.33C33.56 13.33 32.51 12.12 32.51 10.30ZM40.49 16.58L41.19 16.58L41.19 12.43L41.36 12.43C41.75 13.19 42.52 13.97 44.04 13.97C45.91 13.97 47.32 12.52 47.32 10.30C47.32 8.09 45.91 6.64 44.04 6.64C42.52 6.64 41.75 7.42 41.36 8.18L41.16 8.18L41.16 6.83L40.49 6.83ZM43.92 13.33C42.32 13.33 41.19 12.12 41.19 10.30C41.19 8.48 42.32 7.28 43.92 7.28C45.51 7.28 46.59 8.46 46.59 10.30C46.59 12.15 45.51 13.33 43.92 13.33ZM49.17 16.58L49.87 16.58L49.87 12.43L50.04 12.43C50.43 13.19 51.20 13.97 52.72 13.97C54.59 13.97 56 12.52 56 10.30C56 8.09 54.59 6.64 52.72 6.64C51.20 6.64 50.43 7.42 50.04 8.18L49.84 8.18L49.84 6.83L49.17 6.83ZM52.60 13.33C51.00 13.33 49.87 12.12 49.87 10.30C49.87 8.48 51.00 7.28 52.60 7.28C54.19 7.28 55.27 8.46 55.27 10.30C55.27 12.15 54.19 13.33 52.60 13.33ZM57.54 8.82L58.16 9.10C58.66 8.04 59.42 7.28 60.80 7.28C62.22 7.28 63.06 8.04 63.06 9.23L63.06 9.81L59.85 10.11C58.55 10.23 57.48 10.81 57.48 11.94C57.48 13.20 58.52 13.97 60.06 13.97C61.70 13.97 62.51 13.19 62.89 12.45L63.06 12.45L63.06 13.78L63.76 13.78L63.76 9.28C63.76 7.67 62.68 6.64 60.83 6.64C59.08 6.64 58.02 7.73 57.54 8.82ZM58.18 11.97C58.18 11.27 58.79 10.81 59.99 10.70L63.06 10.42L63.06 10.53C63.06 12.33 61.80 13.36 60.09 13.36C58.95 13.36 58.18 12.88 58.18 11.97ZM65.97 3.98L65.97 13.78L66.64 13.78L66.64 12.43L66.84 12.43C67.23 13.19 68.00 13.97 69.52 13.97C71.39 13.97 72.80 12.52 72.80 10.30C72.80 8.09 71.39 6.64 69.52 6.64C68.00 6.64 67.23 7.42 66.84 8.18L66.67 8.18L66.67 3.98ZM69.40 7.28C70.99 7.28 72.07 8.46 72.07 10.30C72.07 12.15 70.99 13.33 69.40 13.33C67.80 13.33 66.67 12.12 66.67 10.30C66.67 8.48 67.80 7.28 69.40 7.28ZM75.35 3.98L74.65 3.98L74.65 13.78L75.35 13.78ZM77.20 10.25C77.20 12.35 78.57 13.97 80.68 13.97C82.49 13.97 83.26 12.98 83.72 12.03L83.05 11.76C82.66 12.64 82.00 13.33 80.68 13.33C79.10 13.33 78.02 12.24 77.92 10.46L83.93 10.46L83.93 10.01C83.93 7.90 82.52 6.64 80.64 6.64C78.69 6.64 77.20 8.20 77.20 10.25ZM77.92 9.84C78.09 8.26 79.21 7.28 80.64 7.28C82.08 7.28 83.15 8.18 83.20 9.84ZM90.40 3.98L90.40 13.78L93.30 13.78C95.76 13.78 97.23 12.63 97.23 9.87L97.23 7.88C97.23 5.12 95.76 3.98 93.30 3.98ZM91.15 4.65L93.25 4.65C95.42 4.65 96.47 5.46 96.47 7.81L96.47 9.94C96.47 12.29 95.48 13.10 93.25 13.10L91.15 13.10ZM98.91 4.80C98.91 5.21 99.20 5.52 99.62 5.52C100.04 5.52 100.34 5.21 100.34 4.80C100.34 4.40 100.04 4.09 99.62 4.09C99.20 4.09 98.91 4.40 98.91 4.80ZM99.97 6.83L99.27 6.83L99.27 13.78L99.97 13.78ZM102.94 6.83L102.27 6.83L102.27 13.78L102.97 13.78L102.97 9.31C102.97 8.04 103.63 7.45 104.69 7.45L105.83 7.45L105.83 6.80L104.82 6.80C103.88 6.80 103.39 7.07 103.11 7.69L102.94 7.69ZM106.86 10.25C106.86 12.35 108.23 13.97 110.35 13.97C112.15 13.97 112.92 12.98 113.39 12.03L112.71 11.76C112.32 12.64 111.66 13.33 110.35 13.33C108.77 13.33 107.69 12.24 107.59 10.46L113.60 10.46L113.60 10.01C113.60 7.90 112.18 6.64 110.31 6.64C108.36 6.64 106.86 8.20 106.86 10.25ZM107.59 9.84C107.76 8.26 108.88 7.28 110.31 7.28C111.75 7.28 112.81 8.18 112.87 9.84ZM115.00 10.30C115.00 12.45 116.54 13.97 118.51 13.97C120.26 13.97 121.42 12.82 121.69 11.35L120.99 11.21C120.78 12.45 119.97 13.33 118.51 13.33C116.93 13.33 115.72 12.04 115.72 10.30C115.72 8.57 116.91 7.28 118.50 7.28C119.84 7.28 120.79 8.11 120.95 9.38L121.65 9.24C121.42 7.80 120.20 6.64 118.50 6.64C116.54 6.64 115.00 8.16 115.00 10.30ZM122.53 6.83L122.53 7.45L124.85 7.45L124.85 12.85C124.85 13.44 125.19 13.78 125.75 13.78L127.60 13.78L127.60 13.16L125.94 13.16C125.69 13.16 125.55 13.02 125.55 12.74L125.55 7.45L127.99 7.45L127.99 6.83L125.55 6.83L125.55 4.40L124.85 4.40L124.85 6.83ZM129.25 10.30C129.25 12.43 130.59 13.97 132.66 13.97C134.74 13.97 136.08 12.43 136.08 10.30C136.08 8.18 134.74 6.64 132.66 6.64C130.59 6.64 129.25 8.18 129.25 10.30ZM129.95 10.30C129.95 8.60 131.00 7.28 132.66 7.28C134.32 7.28 135.38 8.53 135.38 10.30C135.38 12.05 134.32 13.33 132.66 13.33C131.00 13.33 129.95 12.12 129.95 10.30ZM138.60 6.83L137.93 6.83L137.93 13.78L138.63 13.78L138.63 9.31C138.63 8.04 139.29 7.45 140.35 7.45L141.48 7.45L141.48 6.80L140.48 6.80C139.54 6.80 139.05 7.07 138.77 7.69L138.60 7.69ZM148.26 6.83L145.70 13.16L145.56 13.16L143.00 6.83L142.24 6.83L145.26 14.20L144.26 16.58L145.01 16.58L149.02 6.83Z"></path></g><!----><!----></svg>